<svg xmlns="http://www.w3.org/2000/svg" viewBox="0 0 1200 800" width="1200" height="800">
  <defs>
    <linearGradient id="bg" x1="100%" y1="0%" x2="0%" y2="100%">
      <stop offset="0%" stop-color="#c8fff1"/>
      <stop offset="100%" stop-color="#effefa"/>
    </linearGradient>
    <pattern id="grid" x="0" y="0" width="40" height="40" patternUnits="userSpaceOnUse">
      <path d="M 40 0 L 0 0 0 40" fill="none" stroke="#0a6657" stroke-width="0.5" opacity="0.06"/>
    </pattern>
  </defs>
  <rect width="1200" height="800" fill="url(#bg)"/>
  <rect width="1200" height="800" fill="url(#grid)"/>
  <ellipse cx="850" cy="250" rx="220" ry="180" fill="#91fee3" opacity="0.15"/>
  <ellipse cx="350" cy="550" rx="160" ry="140" fill="#52f6d2" opacity="0.1"/>
  <!-- Bed icon -->
  <g transform="translate(510, 270)" fill="none" stroke="#0a6657" stroke-width="3" opacity="0.3">
    <rect x="0" y="50" width="180" height="80" rx="8"/>
    <rect x="0" y="0" width="180" height="50" rx="8"/>
    <rect x="10" y="10" width="70" height="30" rx="6"/>
    <rect x="100" y="10" width="70" height="30" rx="6"/>
    <rect x="5" y="130" width="15" height="20" rx="4"/>
    <rect x="160" y="130" width="15" height="20" rx="4"/>
  </g>
  <text x="600" y="480" text-anchor="middle" font-family="Inter, Segoe UI, system-ui, sans-serif" font-size="28" font-weight="600" fill="#0a6657" opacity="0.5">Alte Mühle</text>
  <text x="600" y="516" text-anchor="middle" font-family="Inter, Segoe UI, system-ui, sans-serif" font-size="16" fill="#06816c" opacity="0.4">Schlafzimmer · Professionelle Fotos folgen</text>
</svg>