<svg xmlns="http://www.w3.org/2000/svg" viewBox="0 0 1200 800" width="1200" height="800">
  <defs>
    <linearGradient id="bg" x1="0%" y1="100%" x2="100%" y2="0%">
      <stop offset="0%" stop-color="#effefa"/>
      <stop offset="100%" stop-color="#91fee3"/>
    </linearGradient>
    <pattern id="grid" x="0" y="0" width="40" height="40" patternUnits="userSpaceOnUse">
      <path d="M 40 0 L 0 0 0 40" fill="none" stroke="#0a6657" stroke-width="0.5" opacity="0.06"/>
    </pattern>
  </defs>
  <rect width="1200" height="800" fill="url(#bg)"/>
  <rect width="1200" height="800" fill="url(#grid)"/>
  <circle cx="200" cy="650" r="180" fill="#c8fff1" opacity="0.2"/>
  <circle cx="1000" cy="150" r="150" fill="#effefa" opacity="0.35"/>
  <!-- Kitchen/flame icon -->
  <g transform="translate(545, 270)" fill="none" stroke="#0a6657" stroke-width="3" opacity="0.3">
    <path d="M55 0 C55 40 90 60 90 100 C90 130 70 150 55 150 C40 150 20 130 20 100 C20 60 55 40 55 0Z"/>
    <path d="M55 50 C55 70 70 80 70 100 C70 115 62 125 55 125 C48 125 40 115 40 100 C40 80 55 70 55 50Z"/>
    <rect x="0" y="155" width="110" height="10" rx="3"/>
  </g>
  <text x="600" y="480" text-anchor="middle" font-family="Inter, Segoe UI, system-ui, sans-serif" font-size="28" font-weight="600" fill="#0a6657" opacity="0.5">Alte Mühle</text>
  <text x="600" y="516" text-anchor="middle" font-family="Inter, Segoe UI, system-ui, sans-serif" font-size="16" fill="#06816c" opacity="0.4">Küche · Professionelle Fotos folgen</text>
</svg>